# xmcd
#
# Track frame offsets: 
#        150
#        15205
#        35502
#        53501
#        68521
#        83684
#        86030
#        106956
#        125121
#        142326
#        157810
#
# Disc length: 2497 seconds
#
# Revision: 0
# Processed by: cddbd v1.5.2PL0 Copyright (c) Steve Scherf et al.
# Submitted via: ExactAudioCopy v0.99pb4
#
DISCID=8309bf0b
DTITLE=Frank Foster - The Rhythm and Whiskey
DYEAR=2014
DGENRE=Country
TTITLE0=Flyin' down the highway
TTITLE1=Southern man
TTITLE2=Cut off jeans
TTITLE3=Outlaw angel
TTITLE4=Bayou moon
TTITLE5=Lone chief intro
TTITLE6=The gospel
TTITLE7=Hard livin'
TTITLE8=Good ol' girl
TTITLE9=I cried
TTITLE10=Livin' the dream
EXTD=
EXTT0=
EXTT1=
EXTT2=
EXTT3=
EXTT4=
EXTT5=
EXTT6=
EXTT7=
EXTT8=
EXTT9=
EXTT10=
PLAYORDER=
